<?xml version="1.0" ?><svg data-name="Layer 1" id="Layer_1" viewBox="0 0 64 64" xmlns="http://www.w3.org/2000/svg"><path d="M57,16h0v0a.84.84,0,0,0,0-.27s0,0,0,0l-.06-.11a.5.5,0,0,0-.13-.19.26.26,0,0,0-.09-.09.85.85,0,0,0-.19-.14l-.11,0A1,1,0,0,0,56,15H8a1,1,0,0,0-.35.07l-.11,0a.85.85,0,0,0-.19.14.38.38,0,0,0-.09.09.59.59,0,0,0-.13.19l-.06.11s0,0,0,0A.84.84,0,0,0,7,16v0H7V48a1,1,0,0,0,1,1H56a1,1,0,0,0,1-1V16Zm-4.14,1L32,31.77,11.14,17ZM9,47V17.93L31.42,33.82a1,1,0,0,0,1.16,0L55,17.93V47Z"/></svg>